<svg version="1.0" xmlns="http://www.w3.org/2000/svg" width="100.000000pt" height="100.000000pt" viewBox="0 0 100.000000 100.000000" preserveAspectRatio="xMidYMid meet"><g transform="translate(0.000000,100.000000) scale(0.100000,-0.100000)" stroke="none"><path d="M250 938 c-102 -39 -185 -147 -226 -293 -22 -78 -33 -567 -14 -590 10 -12 48 -15 210 -15 171 0 199 2 204 16 12 31 7 389 -6 402 -7 7 -42 12 -86 12 l-75 0 7 61 c11 105 49 169 111 183 51 13 55 21 55 121 0 52 -3 100 -6 109 -9 23 -106 20 -174 -6z"></path><path d="M820 938 c-73 -28 -152 -108 -190 -191 -47 -104 -60 -201 -60 -452 0 -123 3 -230 6 -239 5 -14 33 -16 203 -16 140 0 200 3 209 12 17 17 17 389 0 406 -7 7 -42 12 -86 12 l-75 0 7 52 c16 121 49 180 107 192 55 11 59 20 59 125 0 62 -4 101 -12 109 -19 19 -107 13 -168 -10z"></path></g></svg>