<?xml version="1.0" standalone="no"?>
<!DOCTYPE svg PUBLIC "-//W3C//DTD SVG 20010904//EN"
 "http://www.w3.org/TR/2001/REC-SVG-20010904/DTD/svg10.dtd">
<svg version="1.0" xmlns="http://www.w3.org/2000/svg"
 width="1280.000000pt" height="1280.000000pt" viewBox="0 0 1280.000000 1280.000000"
 preserveAspectRatio="xMidYMid meet">

<g transform="translate(0.000000,1280.000000) scale(0.100000,-0.100000)"
fill="#000000" stroke="none">
<path d="M6161 9459 c-30 -4 -89 -25 -135 -48 -204 -102 -433 -320 -906 -858
l-37 -43 -164 79 c-426 205 -828 333 -1206 386 -159 22 -441 34 -600 24 -167
-10 -202 -14 -363 -45 -639 -120 -1051 -425 -1146 -849 -25 -113 -23 -313 4
-417 37 -136 109 -257 222 -368 215 -212 509 -338 965 -412 120 -19 574 -16
745 6 226 29 230 30 230 17 0 -17 -311 -349 -516 -553 -168 -166 -388 -357
-411 -358 -7 0 -39 17 -70 37 -80 51 -263 137 -353 165 -101 31 -324 34 -410
4 -156 -53 -248 -143 -271 -261 -25 -134 75 -242 271 -291 101 -25 315 -23
470 5 142 26 328 69 457 107 48 14 97 24 108 21 11 -2 129 -76 262 -164 573
-381 905 -549 1258 -637 363 -90 806 -43 1126 120 59 30 127 73 152 94 25 22
50 40 56 40 6 0 13 -12 17 -27 13 -59 60 -137 112 -184 191 -174 585 -84 882
203 183 177 343 420 436 664 48 126 95 316 102 409 7 84 8 90 32 97 205 59
285 93 410 177 76 51 212 168 244 209 30 39 -2 24 -60 -29 -154 -140 -386
-243 -564 -251 l-54 -3 -12 65 c-23 124 -67 216 -134 278 -14 13 -54 37 -90
55 -158 76 -392 30 -609 -120 -139 -97 -346 -326 -440 -488 -130 -223 -203
-400 -271 -655 -7 -24 -26 -72 -42 -105 -117 -232 -335 -388 -648 -466 -137
-33 -355 -37 -517 -9 -382 67 -739 225 -1248 555 -60 39 -156 100 -212 136
-57 35 -102 68 -100 72 1 5 34 20 72 33 147 51 194 81 273 179 134 166 482
633 615 825 48 69 95 135 105 146 9 12 58 36 112 54 376 130 680 290 970 510
152 115 405 355 468 445 14 19 29 35 33 35 4 0 90 -44 191 -97 768 -405 1294
-501 1681 -307 145 74 238 163 305 293 67 131 67 133 -22 224 -41 42 -77 77
-79 77 -2 0 -7 -30 -11 -67 -21 -208 -121 -361 -295 -452 -258 -134 -573 -117
-1050 55 -185 67 -681 302 -681 323 0 4 30 46 66 92 215 273 391 616 455 884
26 112 24 252 -5 301 -34 56 -87 76 -175 63z m110 -68 c23 -19 24 -24 23 -143
-1 -108 -5 -135 -33 -222 -65 -207 -170 -420 -308 -630 -72 -109 -181 -256
-189 -256 -3 0 -88 47 -187 104 -100 57 -219 122 -264 146 -52 27 -83 49 -83
59 1 16 152 210 329 421 226 270 458 481 579 525 54 20 106 18 133 -4z m-2796
-442 c50 -5 133 -14 185 -19 265 -26 640 -128 980 -267 172 -70 404 -180 408
-192 2 -6 -16 -32 -40 -58 -24 -26 -53 -60 -64 -74 -10 -14 -38 -47 -61 -75
-56 -66 -175 -210 -309 -374 -232 -285 -507 -620 -611 -745 -128 -153 -103
-143 -418 -174 -522 -52 -812 -30 -1154 85 -233 79 -385 166 -515 297 -184
184 -255 389 -227 652 29 260 166 475 409 636 144 95 335 177 522 224 36 9 81
20 100 25 114 29 444 67 595 69 61 0 151 -4 200 -10z m1825 -605 c324 -179
420 -237 420 -251 0 -22 -311 -328 -425 -419 -239 -189 -526 -355 -839 -483
-143 -59 -186 -71 -186 -53 0 5 15 29 33 53 64 84 375 516 491 682 66 93 380
512 389 519 13 8 26 3 117 -48z m1868 -1468 c70 -37 102 -103 109 -233 8 -125
10 -124 -145 -51 -24 11 -70 45 -102 75 -59 54 -125 156 -116 179 14 36 200
58 254 30z m-264 -141 c63 -160 154 -251 291 -295 62 -20 64 -23 50 -88 -24
-105 -90 -308 -146 -447 -134 -337 -358 -639 -591 -797 -87 -60 -163 -88 -239
-88 -136 0 -197 70 -206 240 -10 187 102 576 256 889 36 73 49 96 102 186 48
82 121 179 217 290 60 69 204 195 220 192 8 -1 28 -38 46 -82z m-4504 -565
c90 -29 380 -171 380 -186 0 -18 -153 -117 -251 -163 -137 -64 -224 -83 -365
-83 -250 1 -364 60 -364 187 0 126 107 226 285 265 66 15 242 4 315 -20z"/>
<path d="M9082 6935 c-245 -84 -494 -276 -767 -590 -89 -103 -83 -63 25 161
131 271 140 288 192 357 25 34 43 66 38 71 -14 14 -88 -5 -163 -42 -94 -46
-202 -153 -242 -237 -15 -33 -70 -150 -123 -260 -99 -210 -164 -346 -227 -480
-21 -44 -62 -132 -93 -195 -93 -197 -113 -250 -124 -342 -13 -101 0 -241 30
-323 21 -58 48 -71 58 -28 10 44 71 221 103 298 78 190 181 394 288 570 14 22
34 56 46 75 85 140 262 364 377 480 191 192 358 314 503 369 75 27 109 27 144
-3 26 -22 28 -30 27 -91 -1 -71 -13 -99 -195 -445 -211 -402 -345 -667 -367
-725 -138 -361 10 -603 356 -583 229 14 419 175 590 501 56 106 82 147 83 132
0 -6 0 -51 -1 -101 -2 -148 47 -262 130 -304 86 -44 206 -17 332 72 70 50 221
202 285 288 23 30 51 60 62 67 18 11 19 10 10 -20 -8 -28 -105 -228 -339 -701
l-65 -131 -210 -105 c-115 -58 -230 -118 -255 -135 -272 -180 -436 -360 -470
-518 -12 -57 -6 -91 26 -133 32 -43 81 -64 151 -64 226 0 565 266 829 651 39
55 143 235 155 266 4 12 19 39 32 60 22 35 36 43 153 87 411 153 645 321 821
586 82 123 191 353 200 419 8 62 -13 55 -37 -12 -114 -316 -326 -585 -599
-760 -96 -62 -430 -217 -467 -217 -21 0 -17 16 21 89 19 36 101 201 181 366
81 165 195 399 254 520 314 643 443 898 494 973 62 93 60 102 -22 83 -100 -24
-239 -122 -299 -211 -17 -25 -70 -126 -117 -225 -48 -99 -92 -189 -98 -200 -7
-11 -38 -66 -70 -123 -252 -451 -582 -812 -740 -812 -47 0 -94 55 -103 121
-23 165 46 397 233 789 169 356 267 540 323 611 42 53 38 63 -17 55 -130 -17
-295 -144 -361 -277 -126 -253 -245 -510 -290 -624 -19 -49 -52 -135 -74 -191
-144 -370 -367 -661 -584 -761 -80 -36 -207 -40 -251 -7 -58 42 -69 68 -72
167 -7 175 30 276 253 692 42 78 63 118 222 425 42 80 79 150 83 155 24 31 70
192 70 243 0 82 -36 154 -89 181 -57 30 -154 28 -249 -4z m918 -2260 c0 -9
-41 -87 -60 -115 -10 -14 -56 -85 -104 -157 -268 -411 -554 -636 -636 -500
-36 58 -17 164 42 250 125 178 309 317 638 483 77 39 120 53 120 39z"/>
</g>
</svg>
